HIERARCHY
ROOT Hips
{
	OFFSET 0.000000 0.000000 0.000000
	CHANNELS 6 Xposition Yposition Zposition Xrotation Yrotation Zrotation
	JOINT LeftUpLeg_virtual
	{
		OFFSET 0.000000 0.000000 0.000000
		CHANNELS 3 Xrotation Yrotation Zrotation
		JOINT LeftUpLeg
		{
			OFFSET 13.026900 -6.336304 -1.092800
			CHANNELS 3 Xrotation Yrotation Zrotation
			JOINT LeftLeg
			{
				OFFSET 0.524474 -46.096886 9.782700
				CHANNELS 3 Xrotation Yrotation Zrotation
				JOINT LeftFoot
				{
					OFFSET -0.524474 -53.427422 -12.948200
					CHANNELS 3 Xrotation Yrotation Zrotation
					JOINT LeftToeBase
					{
						OFFSET 0.192200 -14.009700 16.364100
						CHANNELS 3 Xrotation Yrotation Zrotation
						JOINT LeftToe_End
						{
							OFFSET -1.784700 -0.561700 9.474800
							CHANNELS 3 Xrotation Yrotation Zrotation
							End Site
							{
								OFFSET 0 0 0
							}
						}
					}
				}
			}
		}
	}
	JOINT RightUpLeg_virtual
	{
		OFFSET 0.000000 0.000000 0.000000
		CHANNELS 3 Xrotation Yrotation Zrotation
		JOINT RightUpLeg
		{
			OFFSET -12.883000 -6.336304 -1.092800
			CHANNELS 3 Xrotation Yrotation Zrotation
			JOINT RightLeg
			{
				OFFSET -0.524587 -46.096825 9.782800
				CHANNELS 3 Xrotation Yrotation Zrotation
				JOINT RightFoot
				{
					OFFSET 0.524587 -53.427383 -12.948300
					CHANNELS 3 Xrotation Yrotation Zrotation
					JOINT RightToeBase
					{
						OFFSET -0.192200 -14.009700 16.364100
						CHANNELS 3 Xrotation Yrotation Zrotation
						JOINT RightToe_End
						{
							OFFSET 1.784700 -0.561700 9.474800
							CHANNELS 3 Xrotation Yrotation Zrotation
							End Site
							{
								OFFSET 0 0 0
							}
						}
					}
				}
			}
		}
	}
	JOINT Spine_virtual
	{
		OFFSET 0.000000 0.000000 0.000000
		CHANNELS 3 Xrotation Yrotation Zrotation
		JOINT Spine
		{
			OFFSET 0.072000 7.257294 -0.789700
			CHANNELS 3 Xrotation Yrotation Zrotation
			JOINT Spine1
			{
				OFFSET 0.000000 12.508769 -0.658067
				CHANNELS 3 Xrotation Yrotation Zrotation
				JOINT Spine1_split
				{
					OFFSET 0.000000 12.508769 -0.658067
					CHANNELS 3 Xrotation Yrotation Zrotation
					JOINT Spine2
					{
						OFFSET 0.000000 12.508769 -0.658067
						CHANNELS 3 Xrotation Yrotation Zrotation
						JOINT Neck_virtual
						{
							OFFSET 0.000000 0.000000 0.000000
							CHANNELS 3 Xrotation Yrotation Zrotation
							JOINT Neck
							{
								OFFSET 0.000000 14.033295 7.520400
								CHANNELS 3 Xrotation Yrotation Zrotation
								JOINT Head
								{
									OFFSET 0.000000 8.198502 5.703100
									CHANNELS 3 Xrotation Yrotation Zrotation
									JOINT HeadTop_End
									{
										OFFSET 0.000000 17.760803 13.332701
										CHANNELS 3 Xrotation Yrotation Zrotation
										End Site
										{
											OFFSET 0 0 0
										}
									}
								}
							}
						}
						JOINT LeftShoulder_virtual
						{
							OFFSET 0.000000 0.000000 0.000000
							CHANNELS 3 Xrotation Yrotation Zrotation
							JOINT LeftShoulder
							{
								OFFSET 6.292450 5.785301 -0.669000
								CHANNELS 3 Xrotation Yrotation Zrotation
								JOINT LeftShoulder_split
								{
									OFFSET 6.292450 5.785301 -0.669000
									CHANNELS 3 Xrotation Yrotation Zrotation
									JOINT LeftArm
									{
										OFFSET 13.907140 -6.093903 1.965100
										CHANNELS 3 Xrotation Yrotation Zrotation
										JOINT LeftForeArm
										{
											OFFSET 34.140198 0.000000 0.000000
											CHANNELS 3 Xrotation Yrotation Zrotation
											JOINT LeftHand
											{
												OFFSET 40.960209 0.000000 0.000000
												CHANNELS 3 Xrotation Yrotation Zrotation
												End Site
												{
													OFFSET 0 0 0
												}
											}
										}
									}
								}
							}
						}
						JOINT RightShoulder_virtual
						{
							OFFSET 0.000000 0.000000 0.000000
							CHANNELS 3 Xrotation Yrotation Zrotation
							JOINT RightShoulder
							{
								OFFSET -6.292450 5.785301 -0.669000
								CHANNELS 3 Xrotation Yrotation Zrotation
								JOINT RightShoulder_split
								{
									OFFSET -6.292450 5.785301 -0.669000
									CHANNELS 3 Xrotation Yrotation Zrotation
									JOINT RightArm
									{
										OFFSET -13.907140 -6.093903 1.965100
										CHANNELS 3 Xrotation Yrotation Zrotation
										JOINT RightForeArm
										{
											OFFSET -34.140198 0.000000 0.000000
											CHANNELS 3 Xrotation Yrotation Zrotation
											JOINT RightHand
											{
												OFFSET -40.960209 0.000000 0.000000
												CHANNELS 3 Xrotation Yrotation Zrotation
												End Site
												{
													OFFSET 0 0 0
												}
											}
										}
									}
								}
							}
						}
					}
				}
			}
		}
	}
}
MOTION
Frames: 8
Frame Time: 0.03333333
-0.674172 104.897842 40.662842 0.000000 0.000000 0.000000 31.151161 10.944827 -13.048799 -85.400997 4.421961 19.891864 49.056058 8.153169 -7.824041 13.730213 -5.575575 14.402726 0.183994 0.532858 4.551092 0.000000 0.000000 0.000000 32.554908 13.766947 -14.803310 -8.581994 -30.876031 -19.247888 66.597746 19.371600 -7.318732 10.140379 -28.129859 17.000395 -8.570380 5.193304 -0.447130 0.000000 0.000000 0.000000 32.979678 20.807615 -18.218324 5.506485 7.369049 -11.842986 10.807972 10.977939 -5.747587 0.231202 0.410646 0.023371 0.000000 0.000000 0.000000 14.863948 12.163397 -6.708168 -21.852307 3.071318 18.633460 -25.180063 -47.230792 27.871167 0.000000 0.000000 0.000000 11.755063 11.062004 -6.252750 -0.466791 3.161258 -0.827436 5.368217 0.677958 -0.444256 14.359950 -41.226998 -24.713562 -17.625474 -24.767089 -8.262485 0.000000 0.000000 0.000000 13.148813 10.993486 -5.645616 -0.705559 15.783853 -11.070856 1.436492 0.970674 0.371312 -31.132562 57.772356 55.151824 -18.927523 26.763265 1.233776 0.000000 0.000000 0.000000 
-0.891412 104.139168 42.238968 0.000000 0.000000 0.000000 29.361631 12.994653 -12.798950 -83.255641 5.168707 18.870274 50.122544 8.832154 -7.824203 10.811256 -5.140545 13.581105 0.536612 0.413452 4.405979 0.000000 0.000000 0.000000 30.837768 15.153453 -14.394028 -11.192178 -28.851395 -18.209262 64.156903 19.959502 -7.656210 8.413670 -26.835555 15.565205 -8.796044 5.238770 -2.051579 0.000000 0.000000 0.000000 31.385211 22.143096 -18.000629 5.572236 5.100261 -12.610979 10.407112 9.689287 -5.239042 0.167706 0.493892 -0.041383 0.000000 0.000000 0.000000 14.272514 10.913049 -6.112228 -21.403427 3.474144 17.388874 -27.072042 -42.722703 29.080435 0.000000 0.000000 0.000000 11.060504 9.907487 -5.782164 -0.432220 5.169231 -0.657305 5.803329 -0.440311 -0.852757 14.447179 -45.705068 -15.570297 -16.617195 -22.884984 -7.046386 0.000000 0.000000 0.000000 12.716888 9.804625 -5.114432 -0.873470 15.055040 -11.045383 1.477814 1.408363 0.929438 -26.406092 54.612092 46.906768 -17.836882 25.787138 -1.552316 0.000000 0.000000 0.000000 
-0.923466 103.730438 44.110367 0.000000 0.000000 0.000000 27.610283 14.352075 -12.551163 -80.589279 5.799362 17.461993 50.932403 9.436434 -7.529450 8.019045 -4.594661 12.748034 1.159375 0.320536 3.948323 0.000000 0.000000 0.000000 28.924871 16.268776 -14.129673 -13.486702 -26.785256 -16.900934 61.450304 20.390106 -7.830096 7.436666 -25.326686 13.903242 -9.744712 5.041547 -2.880070 0.000000 0.000000 0.000000 29.515423 23.176283 -17.757655 5.703204 2.993996 -13.229562 10.109323 8.130780 -4.943942 0.091377 0.574242 -0.079307 0.000000 0.000000 0.000000 13.841485 9.398699 -5.772175 -20.803474 4.053089 15.890348 -28.161305 -38.114785 31.133730 0.000000 0.000000 0.000000 10.615244 8.435401 -5.511233 -0.407400 6.949564 -0.223592 6.388905 -1.353498 -1.179857 12.372767 -50.139674 -7.916269 -15.617812 -20.793951 -6.150526 0.000000 0.000000 0.000000 12.545432 8.354950 -4.825720 -0.807970 14.434606 -11.854410 1.400411 1.503868 0.935443 -22.917078 51.551420 40.042886 -17.032680 25.035553 -3.853479 0.000000 0.000000 0.000000 
-0.822881 103.758408 46.066414 0.000000 0.000000 0.000000 25.838939 15.119824 -12.473008 -77.408057 6.319463 16.098944 51.652506 9.842016 -6.954151 5.597608 -4.033759 12.005955 1.795031 0.248446 3.225551 0.000000 0.000000 0.000000 26.828944 17.146833 -14.022600 -15.830280 -24.930938 -15.770721 58.446981 20.852281 -7.925543 7.914331 -23.321602 12.897668 -11.439219 4.690313 -3.123530 0.000000 0.000000 0.000000 27.351680 23.911014 -17.565351 5.917276 1.043966 -13.605293 9.960051 6.317762 -4.847069 0.098373 0.587781 -0.081895 0.000000 0.000000 0.000000 13.519530 7.644215 -5.659340 -19.957596 4.824868 14.195253 -28.457162 -33.261259 33.787020 0.000000 0.000000 0.000000 10.503979 6.649897 -5.424651 -0.402076 8.224045 0.452999 6.896178 -2.006079 -1.490940 7.472952 -54.116620 -2.823812 -14.522398 -18.408063 -5.498515 0.000000 0.000000 0.000000 12.600797 6.617946 -4.747973 -0.535105 13.941272 -13.478326 1.500278 1.653021 0.692764 -20.200141 48.536509 34.039767 -16.617169 24.805925 -5.468036 0.000000 0.000000 0.000000 
-0.661784 104.184425 48.051098 0.000000 0.000000 0.000000 24.114900 15.405391 -12.666084 -73.993283 6.907089 15.258335 52.281420 10.040746 -6.159351 3.530896 -3.652365 11.414734 2.298737 0.187267 2.350425 0.000000 0.000000 0.000000 24.798380 17.833815 -14.197282 -17.982344 -23.558490 -14.752886 54.382994 21.237618 -7.824796 8.762970 -20.906507 12.373172 -13.262341 4.341970 -3.287665 0.000000 0.000000 0.000000 24.937362 24.338264 -17.540156 6.205328 -0.752114 -13.629321 9.946159 4.333484 -4.865884 0.145647 0.537181 -0.064474 0.000000 0.000000 0.000000 13.239153 5.728552 -5.673398 -18.761821 5.783889 12.395473 -28.251314 -28.200878 36.688460 0.000000 0.000000 0.000000 10.707949 4.617311 -5.399846 -0.412788 8.832318 1.336705 7.342632 -2.334173 -1.647833 -0.398791 -57.139720 -1.070993 -13.262073 -15.908846 -5.007069 0.000000 0.000000 0.000000 12.835876 4.668097 -4.798286 -0.091122 13.557266 -15.625007 1.963362 2.007014 0.392496 -18.758710 45.623765 29.062148 -16.658398 25.182561 -6.264640 0.000000 0.000000 0.000000 
-0.428488 104.883507 49.900169 0.000000 0.000000 0.000000 22.398530 15.291134 -13.221067 -70.610455 7.722014 15.212689 52.672657 9.962855 -5.175020 1.830884 -3.579816 10.899314 2.579171 0.125523 1.484562 0.000000 0.000000 0.000000 22.858256 18.146768 -14.680419 -19.676120 -22.790859 -13.692548 48.821731 21.455207 -7.391909 8.940102 -18.342451 11.932821 -14.484671 4.150848 -3.765946 0.000000 0.000000 0.000000 22.392326 24.371443 -17.697102 6.506583 -2.434428 -13.274989 10.053166 2.253667 -4.868647 0.207910 0.466401 -0.038305 0.000000 0.000000 0.000000 12.985290 3.725550 -5.662606 -17.286034 6.810258 10.616743 -27.910801 -22.933738 39.438007 0.000000 0.000000 0.000000 11.100446 2.466205 -5.295750 -0.425023 8.820406 2.389054 7.455982 -2.587574 -1.815594 -10.614752 -59.010294 -2.464779 -11.745682 -13.572437 -4.639566 0.000000 0.000000 0.000000 13.108557 2.585787 -4.821962 0.446187 13.357112 -17.938259 2.499235 2.213803 0.312705 -19.829813 43.029703 25.787430 -17.221902 25.869326 -6.210995 0.000000 0.000000 0.000000 
-0.132841 105.864258 51.655140 0.000000 0.000000 0.000000 20.505963 14.633576 -14.050976 -67.427853 8.896340 15.966411 52.651818 9.509300 -3.998418 0.401365 -3.918485 10.295573 2.633953 0.059616 0.785611 0.000000 0.000000 0.000000 21.052979 18.068161 -15.485613 -20.850401 -22.650473 -12.549640 42.095552 21.358649 -6.664334 8.211219 -15.927767 11.675052 -14.146641 4.187968 -4.744965 0.000000 0.000000 0.000000 19.888247 23.937356 -18.036265 6.741238 -3.963067 -12.564953 10.215739 0.199665 -4.763375 0.258772 0.413539 -0.020862 0.000000 0.000000 0.000000 12.735601 1.743916 -5.519883 -15.692614 7.802344 8.957370 -27.762084 -17.576046 41.718932 0.000000 0.000000 0.000000 11.552784 0.361861 -5.008613 -0.409480 8.321331 3.550160 7.430464 -2.709675 -1.658805 -21.659351 -59.754415 -5.985258 -9.996146 -11.672000 -4.373249 0.000000 0.000000 0.000000 13.331273 0.505690 -4.695582 0.897851 13.253315 -19.929771 3.223571 2.449514 0.655169 -24.144459 40.804544 24.697278 -18.342364 26.731460 -5.322998 0.000000 0.000000 0.000000 
0.268677 107.154274 53.188522 0.000000 0.000000 0.000000 18.597676 13.571912 -15.088849 -64.533430 10.421724 17.250997 52.144475 8.839282 -2.659996 -0.866884 -4.519448 9.610071 2.705063 -0.016230 0.299226 0.000000 0.000000 0.000000 19.173058 17.424113 -16.472072 -22.021718 -22.942520 -11.512656 34.975227 20.869344 -5.778047 7.577918 -13.711823 12.236472 -12.322105 4.414416 -6.254671 0.000000 0.000000 0.000000 17.611882 23.015799 -18.533877 6.864615 -5.302700 -11.539767 10.380681 -1.713671 -4.510245 0.271369 0.361045 -0.017321 0.000000 0.000000 0.000000 12.498170 -0.094063 -5.190323 -14.190438 8.713993 7.481735 -28.036455 -12.443262 43.340033 0.000000 0.000000 0.000000 11.943838 -1.550276 -4.514298 -0.341107 7.533589 4.732699 7.411290 -2.963688 -1.174198 -32.036821 -59.748958 -10.379151 -8.142917 -10.398295 -4.255079 0.000000 0.000000 0.000000 13.444608 -1.423645 -4.376114 1.218797 13.276371 -21.248286 3.853073 2.398409 1.370182 -32.127994 38.551104 26.211676 -20.004992 27.388425 -3.682094 0.000000 0.000000 0.000000 
